HIERARCHY
ROOT Hips
{
	OFFSET 0.000000 0.000000 0.000000
	CHANNELS 6 Xposition Yposition Zposition Zrotation Yrotation Xrotation 
	JOINT LHipJoint
	{
		OFFSET 0.000000 0.000000 0.000000
		CHANNELS 3 Zrotation Yrotation Xrotation
		JOINT LeftUpLeg
		{
			OFFSET 1.363060 -1.794630 0.839290
			CHANNELS 3 Zrotation Yrotation Xrotation
			JOINT LeftLeg
			{
				OFFSET 2.448110 -6.726130 0.000000
				CHANNELS 3 Zrotation Yrotation Xrotation
				JOINT LeftFoot
				{
					OFFSET 2.562200 -7.039590 0.000000
					CHANNELS 3 Zrotation Yrotation Xrotation
					JOINT LeftToeBase
					{
						OFFSET 0.157640 -0.433110 2.322550
						CHANNELS 3 Zrotation Yrotation Xrotation
						End Site
						{
							OFFSET 0.000000 0.000000 0.000000
						}
					}
				}
			}
		}
	}
	JOINT RHipJoint
	{
		OFFSET 0.000000 0.000000 0.000000
		CHANNELS 3 Zrotation Yrotation Xrotation
		JOINT RightUpLeg
		{
			OFFSET -1.305520 -1.794630 0.839290
			CHANNELS 3 Zrotation Yrotation Xrotation
			JOINT RightLeg
			{
				OFFSET -2.542530 -6.985550 0.000000
				CHANNELS 3 Zrotation Yrotation Xrotation
				JOINT RightFoot
				{
					OFFSET -2.568260 -7.056230 0.000000
					CHANNELS 3 Zrotation Yrotation Xrotation
					JOINT RightToeBase
					{
						OFFSET -0.164730 -0.452590 2.363150
						CHANNELS 3 Zrotation Yrotation Xrotation
						End Site
						{
							OFFSET 0.000000 0.000000 0.000000
						}
					}
				}
			}
		}
	}
	JOINT LowerBack
	{
		OFFSET 0.000000 0.000000 0.000000
		CHANNELS 3 Zrotation Yrotation Xrotation
		JOINT Spine
		{
			OFFSET 0.028270 2.035590 -0.193380
			CHANNELS 3 Zrotation Yrotation Xrotation
			JOINT Spine1
			{
				OFFSET 0.056720 2.048850 -0.042750
				CHANNELS 3 Zrotation Yrotation Xrotation
				JOINT Neck
				{
					OFFSET 0.000000 0.000000 0.000000
					CHANNELS 3 Zrotation Yrotation Xrotation
					JOINT Neck1
					{
						OFFSET -0.054170 1.746240 0.172020
						CHANNELS 3 Zrotation Yrotation Xrotation
						JOINT Head
						{
							OFFSET 0.104070 1.761360 -0.123970
							CHANNELS 3 Zrotation Yrotation Xrotation
							End Site
							{
								OFFSET 0.000000 0.000000 0.000000
							}
						}
					}
				}
				JOINT LeftShoulder
				{
					OFFSET 0.000000 0.000000 0.000000
					CHANNELS 3 Zrotation Yrotation Xrotation
					JOINT LeftArm
					{
						OFFSET 3.362410 1.200890 -0.311210
						CHANNELS 3 Zrotation Yrotation Xrotation
						JOINT LeftForeArm
						{
							OFFSET 4.983000 -0.000000 -0.000000
							CHANNELS 3 Zrotation Yrotation Xrotation
							JOINT LeftHand
							{
								OFFSET 3.483560 -0.000000 -0.000000
								CHANNELS 3 Zrotation Yrotation Xrotation
								JOINT LeftFingerBase
								{
									OFFSET 0.000000 0.000000 0.000000
									CHANNELS 3 Zrotation Yrotation Xrotation
									JOINT LeftHandIndex1
									{
										OFFSET 0.715260 -0.000000 -0.000000
										CHANNELS 3 Zrotation Yrotation Xrotation
										End Site
										{
											OFFSET 0.000000 0.000000 0.000000
										}
									}
								}
								JOINT LThumb
								{
									OFFSET 0.000000 0.000000 0.000000
									CHANNELS 3 Zrotation Yrotation Xrotation
									End Site
									{
										OFFSET 0.000000 0.000000 0.000000
									}
								}
							}
						}
					}
				}
				JOINT RightShoulder
				{
					OFFSET 0.000000 0.000000 0.000000
					CHANNELS 3 Zrotation Yrotation Xrotation
					JOINT RightArm
					{
						OFFSET -3.136600 1.374050 -0.404650
						CHANNELS 3 Zrotation Yrotation Xrotation
						JOINT RightForeArm
						{
							OFFSET -5.241900 -0.000000 -0.000000
							CHANNELS 3 Zrotation Yrotation Xrotation
							JOINT RightHand
							{
								OFFSET -3.444170 -0.000000 -0.000000
								CHANNELS 3 Zrotation Yrotation Xrotation
								JOINT RightFingerBase
								{
									OFFSET 0.000000 0.000000 0.000000
									CHANNELS 3 Zrotation Yrotation Xrotation
									JOINT RightHandIndex1
									{
										OFFSET -0.622530 -0.000000 -0.000000
										CHANNELS 3 Zrotation Yrotation Xrotation
										End Site
										{
											OFFSET 0.000000 0.000000 0.000000
										}
									}
								}
								JOINT RThumb
								{
									OFFSET 0.000000 0.000000 0.000000
									CHANNELS 3 Zrotation Yrotation Xrotation
									End Site
									{
										OFFSET 0.000000 0.000000 0.000000
									}
								}
							}
						}
					}
				}
			}
		}
	}
}
MOTION
Frames: 12
Frame Time: 0.008333
1.188280 15.514889 -5.658299 2.937961 -2.520743 0.118026 2.285025 1.126011 -1.009358 -1.483713 -29.683582 -30.274814 -0.538647 5.473691 14.496107 2.075172 1.605467 26.427215 0.665100 -5.215700 -14.524800 -6.742617 -4.498534 -1.151405 29.988348 -20.719279 -29.696033 -12.512452 -18.609251 68.039797 -0.192290 -22.758188 -46.190226 -0.296900 -3.503900 9.685000 13.986799 12.767302 1.588367 -15.841319 14.357901 -4.157149 -9.690779 7.867601 -0.214676 -13.192508 -8.738012 -5.049847 -9.246185 -6.178594 43.084989 -4.120300 -5.077600 19.046600 -1.683844 -9.953983 0.431033 -74.556748 14.414488 44.136473 20.221032 -21.977529 -4.784651 0.925701 -0.166366 -19.844837 17.814358 -23.317178 -6.793500 -7.125000 0.000000 0.000000 -7.495200 6.285600 6.688400 3.319200 10.006565 5.857948 -34.754051 64.525396 -77.185710 -160.977279 33.123837 -113.649283 1.543326 -0.742924 -61.193869 0.163304 -39.423566 -0.043700 7.125000 0.000000 0.000000 41.855500 -62.700900 -19.771800 
1.188991 15.514889 -5.657689 3.146043 -2.378483 0.199654 2.271748 1.121788 -1.016016 -1.732596 -29.690431 -30.361048 -0.548770 5.457142 14.467049 2.100887 1.432019 26.459050 0.704400 -5.364300 -14.950600 -6.740176 -4.498550 -1.166870 29.764278 -20.877537 -29.872286 -12.526082 -18.626141 68.076357 -0.109849 -22.908122 -46.061822 -0.290600 -3.466500 9.580200 13.852905 12.791979 1.592144 -16.074229 14.356346 -4.220983 -9.682779 7.871236 -0.255905 -13.347542 -8.818539 -4.986253 -9.065093 -6.332462 43.073322 -4.022500 -5.144400 19.064300 -1.656717 -9.949672 0.432709 -74.562034 14.493264 43.997653 20.179320 -21.923250 -4.773943 0.930879 -0.173029 -19.746064 17.544114 -23.885564 -6.832300 -7.125000 0.000000 0.000000 -7.703000 5.750400 6.957000 3.319025 10.003337 5.838314 -34.679607 64.388436 -77.184146 -161.117083 32.964516 -113.723230 1.540081 -0.746726 -61.289937 -0.061757 -39.326338 0.089100 7.125000 0.000000 0.000000 41.522200 -62.685800 -19.570000 
1.190820 15.515905 -5.654438 3.389117 -2.299325 0.242664 2.261876 1.135662 -0.999588 -1.986780 -29.785165 -30.413801 -0.548567 5.461700 14.496012 2.099172 1.355791 26.405396 0.723300 -5.434300 -15.151400 -6.728002 -4.488751 -1.168104 29.448940 -21.033984 -29.985247 -12.539518 -18.634647 68.115953 -0.158277 -22.684232 -45.998443 -0.293800 -3.485700 9.634100 13.574902 12.772428 1.427981 -16.083751 14.332317 -4.034877 -9.519113 7.856724 -0.159567 -13.587790 -8.812337 -5.090894 -8.934994 -6.324374 42.960029 -3.915800 -5.166600 19.038300 -1.656538 -9.904475 0.357395 -74.798669 14.395195 43.621354 20.130096 -21.828919 -4.745381 0.929834 -0.194436 -19.603619 16.125670 -24.188924 -6.300300 -7.125000 0.000000 0.000000 -8.594900 5.662500 7.795100 3.311915 9.906825 6.036944 -36.113960 64.219290 -78.646343 -161.209692 32.950097 -113.758117 1.556357 -0.741996 -61.402954 -0.220263 -39.517774 0.191900 7.125000 0.000000 0.000000 41.592800 -62.863500 -19.782000 
1.190921 15.515702 -5.650883 3.197223 -2.340434 0.218808 2.282282 1.142305 -0.988464 -1.809002 -29.725432 -30.423122 -0.544791 5.477159 14.533180 2.106982 1.281707 26.372365 0.712700 -5.395300 -15.039600 -6.721506 -4.485139 -1.164969 29.631245 -21.087235 -29.920637 -12.534085 -18.620985 68.098342 -0.172458 -22.637739 -45.999259 -0.277100 -3.385500 9.354000 13.645861 12.731666 1.435606 -15.820763 14.320006 -4.005173 -9.516029 7.852686 -0.076717 -13.821997 -8.783660 -5.135333 -8.887821 -6.270670 42.876411 -3.846500 -5.175700 18.993700 -1.684824 -9.841901 0.284521 -74.993126 14.452755 43.416973 20.092398 -21.771329 -4.737211 0.930195 -0.203434 -19.597082 15.688076 -24.775518 -6.253100 -7.125000 0.000000 0.000000 -8.897200 5.138700 8.165700 3.313834 9.809321 6.275855 -37.653399 64.193158 -80.233226 -161.264742 32.996949 -113.764970 1.593796 -0.749559 -61.428506 -0.252852 -40.324740 0.222300 7.125000 0.000000 0.000000 42.574600 -63.445800 -20.913700 
1.192445 15.514686 -5.647937 2.960430 -2.345394 0.277457 2.301902 1.136188 -0.995435 -1.559858 -29.659327 -30.501467 -0.544892 5.483598 14.529592 2.124166 1.241391 26.413762 0.701500 -5.353700 -14.920100 -6.722917 -4.489885 -1.167411 29.919666 -21.135820 -29.986588 -12.531127 -18.617962 68.081525 -0.010760 -23.077526 -45.896465 -0.243600 -3.176400 8.770200 13.854638 12.682856 1.535774 -15.707067 14.267950 -4.167187 -9.633878 7.836847 -0.047741 -13.872005 -8.744204 -5.280616 -8.936954 -6.169214 42.879796 -3.862100 -5.148100 19.007800 -1.683519 -9.782506 0.243143 -75.025814 14.689916 43.497888 20.136010 -21.849268 -4.776329 0.933469 -0.199592 -19.703747 16.441916 -25.293878 -6.713300 -7.125000 0.000000 0.000000 -8.470700 4.505000 7.867400 3.323740 9.733167 6.478116 -38.797195 64.261391 -81.537027 -161.345638 32.989296 -113.785725 1.640884 -0.773602 -61.438927 -0.347637 -41.553201 0.289300 7.125000 0.000000 0.000000 44.135600 -64.325000 -22.720200 
1.197626 15.517327 -5.641944 3.163571 -2.241218 0.497808 2.301304 1.120015 -1.020814 -1.723567 -29.755332 -30.738219 -0.539976 5.514621 14.606023 2.126079 1.146006 26.328187 0.731400 -5.464000 -15.236800 -6.719318 -4.488793 -1.187998 29.707426 -21.278614 -30.258368 -12.515287 -18.632218 68.037267 0.040047 -23.052523 -45.696878 -0.246500 -3.194800 8.821600 13.734458 12.704228 1.518536 -15.989667 14.218839 -4.473584 -9.639278 7.833895 -0.082413 -13.899933 -8.752647 -5.340153 -8.935111 -6.145737 42.955322 -3.869800 -5.145600 19.082000 -1.637579 -9.754339 0.246432 -74.974463 14.976390 43.702254 20.236927 -22.000565 -4.825323 0.933738 -0.193032 -19.706888 17.219228 -24.925080 -6.966100 -7.125000 0.000000 0.000000 -7.971400 4.758500 7.355700 3.336371 9.705238 6.535887 -39.011997 64.297373 -81.942170 -161.365524 32.972942 -113.793968 1.660382 -0.773776 -61.527553 -0.222135 -41.930925 0.214700 7.125000 0.000000 0.000000 44.778700 -64.548400 -23.342400 
1.205650 15.522406 -5.638897 3.623937 -2.063473 0.775821 2.282640 1.104658 -1.046030 -2.177671 -29.892488 -30.994550 -0.549156 5.504287 14.596456 2.140381 0.909164 26.230973 0.781900 -5.645200 -15.758400 -6.705962 -4.488222 -1.215066 29.177634 -21.582731 -30.708703 -12.517602 -18.666891 68.043448 0.161259 -23.099622 -45.326129 -0.233800 -3.111800 8.590100 13.405088 12.757238 1.364859 -16.423778 14.171675 -4.734868 -9.549410 7.832738 -0.113274 -14.040424 -8.826109 -5.217033 -8.823345 -6.263511 43.004741 -3.811700 -5.206200 19.140500 -1.588317 -9.759391 0.266902 -75.005145 15.126845 43.621512 20.214856 -21.970217 -4.804784 0.931203 -0.190407 -19.470339 17.208843 -24.492430 -6.848200 -7.125000 0.000000 0.000000 -7.948500 5.193500 7.268200 3.347244 9.718238 6.482042 -38.598197 64.287669 -81.640833 -161.376744 32.920766 -113.809515 1.649878 -0.762008 -61.564721 -0.100901 -41.522163 0.138200 7.125000 0.000000 0.000000 44.312200 -64.235500 -22.738600 
1.183506 15.533682 -5.630770 2.618595 -2.461295 0.134984 2.310770 1.133151 -0.988098 -1.392108 -29.260557 -30.232766 -0.561700 5.453920 14.501242 2.182569 0.653942 26.276479 0.803100 -5.719600 -15.973100 -6.710969 -4.497276 -1.210368 30.228978 -21.500413 -29.651341 -12.409098 -18.541282 67.702034 0.223646 -23.495240 -45.516905 -0.223100 -3.040700 8.392200 14.151823 12.761865 1.817871 -15.629405 14.405020 -4.388997 -9.850572 7.913034 -0.104949 -14.189464 -8.863666 -5.301628 -8.821584 -6.298788 43.021656 -3.806300 -5.231400 19.147200 -1.685023 -9.749457 0.234077 -75.110848 15.051265 43.176996 20.163884 -21.885237 -4.766803 0.928373 -0.192477 -19.356667 16.828962 -24.374606 -6.652400 -7.125000 0.000000 0.000000 -8.173400 5.368200 7.450700 3.329950 9.715207 6.523082 -39.021758 64.214589 -82.106583 -161.513012 32.825176 -113.867968 1.647071 -0.749652 -61.569031 -0.073194 -41.213509 0.125800 7.125000 0.000000 0.000000 43.897900 -64.015100 -22.265000 
1.185842 15.537440 -5.627621 2.784924 -2.306745 0.168719 2.288329 1.133828 -0.983563 -1.580747 -29.364411 -30.257297 -0.565336 5.438857 14.468478 2.183032 0.696625 26.346371 0.787300 -5.664200 -15.813300 -6.704872 -4.497490 -1.219106 30.012521 -21.727081 -29.705916 -12.385154 -18.532015 67.632878 0.172433 -23.233909 -45.417756 -0.233600 -3.110900 8.587600 14.073115 12.764476 1.685910 -15.815331 14.373821 -4.296299 -9.815073 7.897087 -0.032775 -14.070128 -8.865568 -5.314087 -8.854953 -6.316680 42.966470 -3.832600 -5.225300 19.107100 -1.658254 -9.743909 0.219337 -75.134724 15.081317 42.974852 20.231849 -21.963799 -4.791765 0.930204 -0.201290 -19.553974 16.332667 -24.342951 -6.427100 -7.125000 0.000000 0.000000 -8.475100 5.483500 7.713200 3.319646 9.691232 6.560277 -39.319788 64.094106 -82.533844 -161.583614 32.756250 -113.907750 1.649704 -0.729056 -61.567843 0.209546 -40.917527 -0.041100 7.125000 0.000000 0.000000 43.741600 -63.735100 -21.890400 
1.186858 15.538761 -5.622847 2.866882 -2.199664 0.193271 2.278394 1.128204 -0.990610 -1.691684 -29.404491 -30.293913 -0.563523 5.447515 14.493913 2.181601 0.705623 26.354659 0.779300 -5.636100 -15.732000 -6.703425 -4.496630 -1.234436 29.900098 -21.853876 -29.690209 -12.354495 -18.519669 67.546149 0.107477 -22.964241 -45.359130 -0.252700 -3.234600 8.932500 14.060512 12.789982 1.697655 -16.004203 14.375572 -4.382875 -9.845976 7.903763 -0.046201 -13.985034 -8.903929 -5.205036 -8.861411 -6.407953 42.943980 -3.844000 -5.250700 19.063000 -1.630501 -9.733112 0.225497 -75.030227 15.266436 43.026331 20.253931 -21.998660 -4.807724 0.934758 -0.202241 -19.695243 16.342310 -24.583076 -6.489500 -7.125000 0.000000 0.000000 -8.485500 5.243200 7.762100 3.313817 9.680337 6.559906 -39.315518 63.997314 -82.620148 -161.579493 32.756365 -113.907624 1.641446 -0.716635 -61.525229 0.337202 -40.592686 -0.115600 7.125000 0.000000 0.000000 43.423300 -63.477100 -21.442800 
1.186147 15.540589 -5.617463 2.688137 -2.241511 0.095363 2.278724 1.132685 -0.976609 -1.583128 -29.294884 -30.157100 -0.569400 5.429975 14.465150 2.205585 0.551052 26.387173 0.831200 -5.816300 -16.252300 -6.704159 -4.499893 -1.236635 30.043005 -21.922172 -29.509795 -12.336878 -18.496421 67.488513 0.137788 -23.008330 -45.298077 -0.251200 -3.224800 8.905400 14.252982 12.800831 1.736375 -15.913587 14.421458 -4.294420 -9.936236 7.922565 0.028113 -14.039803 -8.966810 -5.309635 -8.890399 -6.486326 42.920294 -3.862500 -5.292900 19.064700 -1.637050 -9.710746 0.192601 -75.050398 15.312306 42.883487 20.163078 -21.883125 -4.777011 0.938178 -0.199170 -19.639618 16.494871 -25.249146 -6.723600 -7.125000 0.000000 0.000000 -8.438600 4.542900 7.830800 3.306876 9.637185 6.660164 -39.988178 63.874795 -83.326159 -161.653200 32.727298 -113.938617 1.634864 -0.699687 -61.592465 0.283637 -40.169314 -0.075200 7.125000 0.000000 0.000000 42.806000 -63.194800 -20.800700 
1.187366 15.541503 -5.614010 2.826292 -2.272966 0.102373 2.259109 1.128087 -0.983689 -1.708953 -29.299824 -30.109092 -0.574544 5.414328 14.433292 2.209085 0.540415 26.420188 0.869900 -5.946800 -16.630100 -6.711119 -4.502585 -1.246910 29.875544 -21.926424 -29.523955 -12.342953 -18.504431 67.504876 0.176727 -23.048645 -45.204365 -0.243200 -3.173700 8.762700 14.216745 12.923236 1.720564 -16.174767 14.545166 -4.302346 -9.954556 7.986614 0.034208 -13.911782 -9.075820 -5.224371 -8.891704 -6.685258 42.939353 -3.894700 -5.352900 19.060600 -1.609214 -9.726872 0.213068 -74.918866 15.366693 42.976349 20.170201 -21.892321 -4.779818 0.941415 -0.200509 -19.652253 16.310667 -25.238125 -6.636700 -7.125000 0.000000 0.000000 -8.551700 4.583700 7.931600 3.291873 9.660006 6.587043 -39.601634 63.745276 -83.062555 -161.735777 32.602017 -113.988601 1.628259 -0.690262 -61.679671 0.337886 -39.869160 -0.106600 7.125000 0.000000 0.000000 42.469000 -62.967400 -20.381600 
